<?xml version="1.0" encoding="UTF-8"?>
<svg version="1.1" xmlns="http://www.w3.org/2000/svg" width="150" height="150">
<path d="M0 0 C49.5 0 99 0 150 0 C150 49.5 150 99 150 150 C100.5 150 51 150 0 150 C0 100.5 0 51 0 0 Z " fill="#FDFEFE" transform="translate(0,0)"/>
<path d="M0 0 C8.58 0 17.16 0 26 0 C26 6.6 26 13.2 26 20 C32.31248183 19.84258038 32.31248183 19.84258038 38.62353516 19.63964844 C44.38972311 19.56738168 47.65687128 20.0925897 52 24 C52.495 25.485 52.495 25.485 53 27 C54.93618425 27.67156616 54.93618425 27.67156616 57 28 C57.66 28.33 58.32 28.66 59 29 C59 29.66 59 30.32 59 31 C59.66 31 60.32 31 61 31 C62.71358643 32.61838719 64.3707726 34.29671681 66 36 C67.55195068 37.22420654 67.55195068 37.22420654 69.13525391 38.47314453 C72.68236235 42.03936675 72.68202994 45.2803314 72.67977905 50.15060425 C72.64881134 51.19145172 72.61784363 52.23229919 72.5859375 53.3046875 C72.57744781 54.38380402 72.56895813 55.46292053 72.56021118 56.57473755 C72.52672087 60.00918935 72.45144418 63.44126222 72.375 66.875 C72.344895 69.20829934 72.31752014 71.54163561 72.29296875 73.875 C72.23205148 79.58497894 72.11462777 85.28983875 72 91 C63.75 91 55.5 91 47 91 C47 74.83 47 58.66 47 42 C40.07 42 33.14 42 26 42 C26.11356669 46.43806659 26.24032829 50.87506727 26.375 55.3125 C26.4059375 56.57513672 26.436875 57.83777344 26.46875 59.13867188 C26.52675781 60.95141602 26.52675781 60.95141602 26.5859375 62.80078125 C26.6173584 63.91622314 26.6487793 65.03166504 26.68115234 66.1809082 C26.805249 69.20368786 26.805249 69.20368786 29 72 C31.6556728 72.58348752 31.6556728 72.58348752 34.625 72.6875 C35.62789062 72.75324219 36.63078125 72.81898437 37.6640625 72.88671875 C38.43492188 72.92410156 39.20578125 72.96148437 40 73 C41.32594359 78.96674616 41.0884587 84.92583615 41 91 C32.61313186 93.70927143 22.9334795 94.69916485 14.4375 91.8125 C7.06056609 87.92284394 3.59997321 83.78658643 1 76 C0.02315302 72.00320725 -0.11575692 68.2768216 -0.09765625 64.16796875 C-0.09443359 62.87568359 -0.09121094 61.58339844 -0.08789062 60.25195312 C-0.07953665 58.89713474 -0.07107172 57.54231703 -0.0625 56.1875 C-0.05748 54.81315265 -0.05291797 53.43880355 -0.04882812 52.06445312 C-0.03705668 48.70959076 -0.02061283 45.35481779 0 42 C-3.96 42 -7.92 42 -12 42 C-12 35.07 -12 28.14 -12 21 C-8.04 21 -4.08 21 0 21 C0 14.07 0 7.14 0 0 Z " fill="#0B70FB" transform="translate(40,29)"/>
<path d="M0 0 C8.25 0 16.5 0 25 0 C25 16.17 25 32.34 25 49 C16.75 49 8.5 49 0 49 C0 32.83 0 16.66 0 0 Z " fill="#075CFA" transform="translate(87,71)"/>
<path d="M0 0 C6.93 0 13.86 0 21 0 C21 15.84 21 31.68 21 48 C19.35 48.66 17.7 49.32 16 50 C15.505 50.495 15.505 50.495 15 51 C12.66702567 51.04092937 10.33294775 51.04241723 8 51 C8 50.67 8 50.34 8 50 C10.97 49.505 10.97 49.505 14 49 C14 43.06 14 37.12 14 31 C12.246875 31.0825 10.49375 31.165 8.6875 31.25 C5.69921875 31.390625 5.69921875 31.390625 3 31 C0.67600602 28.70350891 0.03891749 27.33510891 -0.34057617 24.06738281 C-0.32486572 22.95717773 -0.30915527 21.84697266 -0.29296875 20.703125 C-0.28330078 19.49785156 -0.27363281 18.29257813 -0.26367188 17.05078125 C-0.23853516 15.79652344 -0.21339844 14.54226562 -0.1875 13.25 C-0.17396484 11.98027344 -0.16042969 10.71054688 -0.14648438 9.40234375 C-0.11113518 6.26804816 -0.05732873 3.13397062 0 0 Z " fill="#F9FCFC" transform="translate(66,71)"/>
<path d="M0 0 C8.58 0 17.16 0 26 0 C26 6.6 26 13.2 26 20 C32.31248183 19.84258038 32.31248183 19.84258038 38.62353516 19.63964844 C44.38972311 19.56738168 47.65687128 20.0925897 52 24 C52.495 25.485 52.495 25.485 53 27 C54.93618425 27.67156616 54.93618425 27.67156616 57 28 C57.66 28.33 58.32 28.66 59 29 C59 29.66 59 30.32 59 31 C59.66 31 60.32 31 61 31 C64.72481388 34.42280194 67.73763874 38.08516649 71 42 C56.15 42 41.3 42 26 42 C26.495 56.355 26.495 56.355 27 71 C26.34 70.67 25.68 70.34 25 70 C24.67 58.45 24.34 46.9 24 35 C31.59 35 39.18 35 47 35 C47.33 32.36 47.66 29.72 48 27 C41.4 27 34.8 27 28 27 C27.67 26.01 27.34 25.02 27 24 C26.34 24.66 25.68 25.32 25 26 C23.72138385 23.44276771 23.88663391 21.63262898 23.90234375 18.7734375 C23.90484131 17.84450684 23.90733887 16.91557617 23.90991211 15.95849609 C23.91901611 14.77594238 23.92812012 13.59338867 23.9375 12.375 C23.958125 8.62125 23.97875 4.8675 24 1 C16.41 1 8.82 1 1 1 C1 7.27 1 13.54 1 20 C0.67 20 0.34 20 0 20 C0 13.4 0 6.8 0 0 Z " fill="#21C9F4" transform="translate(40,29)"/>
<path d="M0 0 C3.75212276 2.01502889 5.63644095 3.45466142 8 7 C8.67680259 12.01306108 8.97902662 17.22914774 6.1875 21.625 C4 24 4 24 1 25 C-1.33299825 25.03954234 -3.66708189 25.04401732 -6 25 C-6.226875 24.38125 -6.45375 23.7625 -6.6875 23.125 C-8.40053356 20.35151709 -9.99919547 20.14316363 -13 19 C-15.375 17.4375 -15.375 17.4375 -17 15 C-17.4879659 11.71561412 -17.18381947 9.10149989 -16 6 C-11.54537164 0.59945056 -6.78478637 -1.09432038 0 0 Z " fill="#B8F218" transform="translate(106,28)"/>
<path d="M0 0 C8.25 0 16.5 0 25 0 C25 6.93 25 13.86 25 21 C23.35 20.67 21.7 20.34 20 20 C20 19.01 20 18.02 20 17 C19.2575 16.7525 18.515 16.505 17.75 16.25 C14.76976913 14.89534961 13.10080748 13.4898459 11 11 C11 10.34 11 9.68 11 9 C10.34 9 9.68 9 9 9 C8.67 8.34 8.34 7.68 8 7 C5.98330173 5.86649466 5.98330173 5.86649466 4 5 C4 4.34 4 3.68 4 3 C3.34 3 2.68 3 2 3 C2 2.34 2 1.68 2 1 C1.34 0.67 0.68 0.34 0 0 Z " fill="#023EAB" transform="translate(87,71)"/>
<path d="M0 0 C3.073125 -0.04125 6.14625 -0.0825 9.3125 -0.125 C10.27712158 -0.14320801 11.24174316 -0.16141602 12.2355957 -0.18017578 C12.99960693 -0.1851709 13.76361816 -0.19016602 14.55078125 -0.1953125 C15.72120972 -0.21102295 15.72120972 -0.21102295 16.9152832 -0.22705078 C19 0 19 0 22 2 C21.34 2 20.68 2 20 2 C20.33 2.66 20.66 3.32 21 4 C21.99 4 22.98 4 24 4 C23.67 4.66 23.34 5.32 23 6 C30.92 6 38.84 6 47 6 C47 6.33 47 6.66 47 7 C32.15 7 17.3 7 2 7 C2.33 16.57 2.66 26.14 3 36 C2.34 35.67 1.68 35.34 1 35 C0.505 17.675 0.505 17.675 0 0 Z " fill="#288FF5" transform="translate(64,64)"/>
<path d="M0 0 C0.33 0 0.66 0 1 0 C1 15.84 1 31.68 1 48 C-0.65 48.66 -2.3 49.32 -4 50 C-4.495 50.495 -4.495 50.495 -5 51 C-7.33297433 51.04092937 -9.66705225 51.04241723 -12 51 C-12 50.67 -12 50.34 -12 50 C-9.03 49.505 -9.03 49.505 -6 49 C-6 43.06 -6 37.12 -6 31 C-9.63 31 -13.26 31 -17 31 C-17 30.67 -17 30.34 -17 30 C-12.71 30 -8.42 30 -4 30 C-3.67 28.68 -3.34 27.36 -3 26 C-2.34 26.66 -1.68 27.32 -1 28 C-0.67 18.76 -0.34 9.52 0 0 Z " fill="#D4E6F7" transform="translate(86,71)"/>
<path d="M0 0 C8.25 0 16.5 0 25 0 C25 6.93 25 13.86 25 21 C30.94 21 36.88 21 43 21 C42.01 21.66 41.02 22.32 40 23 C41.32 23.33 42.64 23.66 44 24 C44 24.66 44 25.32 44 26 C38.65097076 26.59198743 33.39115154 27.14187241 28 27 C27.67 26.01 27.34 25.02 27 24 C26.34 24.66 25.68 25.32 25 26 C23.72138385 23.44276771 23.88663391 21.63262898 23.90234375 18.7734375 C23.90484131 17.84450684 23.90733887 16.91557617 23.90991211 15.95849609 C23.91901611 14.77594238 23.92812012 13.59338867 23.9375 12.375 C23.958125 8.62125 23.97875 4.8675 24 1 C16.41 1 8.82 1 1 1 C1 7.27 1 13.54 1 20 C0.67 20 0.34 20 0 20 C0 13.4 0 6.8 0 0 Z " fill="#31AEED" transform="translate(40,29)"/>
<path d="M0 0 C7.59 0 15.18 0 23 0 C23 0.66 23 1.32 23 2 C20.70839681 2.02692484 18.41670454 2.04636124 16.125 2.0625 C14.84882812 2.07410156 13.57265625 2.08570313 12.2578125 2.09765625 C9 2 9 2 7 1 C7 6.61 7 12.22 7 18 C5.02 18 3.04 18 1 18 C0.08377246 11.81546408 0 6.38333296 0 0 Z " fill="#0D85F8" transform="translate(41,30)"/>
<path d="M0 0 C0.33 0 0.66 0 1 0 C1.02688151 1.64574566 1.04634123 3.29161413 1.0625 4.9375 C1.07410156 5.85402344 1.08570313 6.77054688 1.09765625 7.71484375 C1 10 1 10 0 11 C-4.00220653 11.14355117 -7.99441683 11.04216403 -12 11 C-12 17.27 -12 23.54 -12 30 C-7.38 29.67 -2.76 29.34 2 29 C1.67 39.89 1.34 50.78 1 62 C-1 60 -1 60 -1.22705078 57.11083984 C-1.21657715 55.90637207 -1.20610352 54.7019043 -1.1953125 53.4609375 C-1.18564453 51.50800781 -1.18564453 51.50800781 -1.17578125 49.515625 C-1.15906929 48.13541405 -1.14213939 46.75520571 -1.125 45.375 C-1.11497006 43.98698548 -1.10584423 42.59896411 -1.09765625 41.2109375 C-1.07401863 37.80711974 -1.04106867 34.40364494 -1 31 C-4.96 31 -8.92 31 -13 31 C-13 24.07 -13 17.14 -13 10 C-7.06 9.505 -7.06 9.505 -1 9 C-0.67 6.03 -0.34 3.06 0 0 Z " fill="#2A6DE6" transform="translate(41,40)"/>
<path d="M0 0 C1 2 1 2 0.6875 4.3125 C0.74245094 7.31486754 0.74245094 7.31486754 3.75 9.5625 C4.30300781 9.97113281 4.85601562 10.37976562 5.42578125 10.80078125 C7 12 7 12 8.9375 14.25 C11.78998815 16.67029297 14.34336006 16.71872 18 17 C18 17.66 18 18.32 18 19 C17.195625 19.12375 16.39125 19.2475 15.5625 19.375 C14.716875 19.58125 13.87125 19.7875 13 20 C12.67 20.66 12.34 21.32 12 22 C3.3515625 20.36380912 3.3515625 20.36380912 0.01171875 17.00390625 C-2.37479287 12.27695467 -1.47105031 6.14117772 -1 1 C-0.67 0.67 -0.34 0.34 0 0 Z " fill="#F0FAEE" transform="translate(89,36)"/>
<path d="M0 0 C0.80824219 0.10183594 1.61648437 0.20367187 2.44921875 0.30859375 C3.06410156 0.39238281 3.67898437 0.47617188 4.3125 0.5625 C3.3225 1.0575 3.3225 1.0575 2.3125 1.5625 C2.6425 2.2225 2.9725 2.8825 3.3125 3.5625 C4.3025 3.5625 5.2925 3.5625 6.3125 3.5625 C5.9825 4.2225 5.6525 4.8825 5.3125 5.5625 C13.2325 5.5625 21.1525 5.5625 29.3125 5.5625 C29.3125 5.8925 29.3125 6.2225 29.3125 6.5625 C14.4625 6.5625 -0.3875 6.5625 -15.6875 6.5625 C-15.6875 6.2325 -15.6875 5.9025 -15.6875 5.5625 C-12.3875 5.2325 -9.0875 4.9025 -5.6875 4.5625 C-5.6875 3.9025 -5.6875 3.2425 -5.6875 2.5625 C-6.3475 1.9025 -7.0075 1.2425 -7.6875 0.5625 C-4.59271121 -0.46909626 -3.16118607 -0.41232862 0 0 Z " fill="#27A2ED" transform="translate(81.6875,64.4375)"/>
<path d="M0 0 C8.25 0 16.5 0 25 0 C25 6.93 25 13.86 25 21 C23.35 20.67 21.7 20.34 20 20 C20 19.01 20 18.02 20 17 C19.2575 16.7525 18.515 16.505 17.75 16.25 C14.79875938 14.90852699 13.15185026 13.39094474 11 11 C11.33 10.34 11.66 9.68 12 9 C12.66 9.66 13.32 10.32 14 11 C15.32 11 16.64 11 18 11 C18 11.99 18 12.98 18 14 C18.639375 14.28875 19.27875 14.5775 19.9375 14.875 C22 16 22 16 23 18 C23.33 12.39 23.66 6.78 24 1 C14.595 1.495 14.595 1.495 5 2 C5.66 3.32 6.32 4.64 7 6 C6.01 5.67 5.02 5.34 4 5 C4 4.34 4 3.68 4 3 C3.34 3 2.68 3 2 3 C2 2.34 2 1.68 2 1 C1.34 0.67 0.68 0.34 0 0 Z " fill="#0E54B5" transform="translate(87,71)"/>
<path d="M0 0 C0.33 0 0.66 0 1 0 C1 6.6 1 13.2 1 20 C7.31248183 19.84258038 7.31248183 19.84258038 13.62353516 19.63964844 C19.38972311 19.56738168 22.65687128 20.0925897 27 24 C27.33 24.99 27.66 25.98 28 27 C29.93618425 27.67156616 29.93618425 27.67156616 32 28 C32.66 28.33 33.32 28.66 34 29 C34 29.66 34 30.32 34 31 C34.66 31 35.32 31 36 31 C36.66 32.32 37.32 33.64 38 35 C36.35 34.34 34.7 33.68 33 33 C33 32.34 33 31.68 33 31 C32.34 31 31.68 31 31 31 C31 30.34 31 29.68 31 29 C29.68 29 28.36 29 27 29 C27 28.34 27 27.68 27 27 C26.34 27 25.68 27 25 27 C25 26.34 25 25.68 25 25 C24.34 25 23.68 25 23 25 C23 24.34 23 23.68 23 23 C18.26129899 21.85151646 13.53640229 21.67122941 8.6875 21.4375 C5.820625 21.293125 2.95375 21.14875 0 21 C0 14.07 0 7.14 0 0 Z " fill="#6DD5EC" transform="translate(65,29)"/>
<path d="M0 0 C-0.66 0.66 -1.32 1.32 -2 2 C-0.68 2.33 0.64 2.66 2 3 C2 4.32 2 5.64 2 7 C-0.97 7 -3.94 7 -7 7 C-7.33 6.34 -7.66 5.68 -8 5 C-8.99 5.495 -8.99 5.495 -10 6 C-10.33 4.35 -10.66 2.7 -11 1 C-9.824375 0.7834375 -9.824375 0.7834375 -8.625 0.5625 C-2.5 -0.75 -2.5 -0.75 0 0 Z " fill="#1BB8F7" transform="translate(94,63)"/>
<path d="M0 0 C6.75 -0.125 6.75 -0.125 9 1 C9 1.66 9 2.32 9 3 C9.66 3 10.32 3 11 3 C11.33 4.98 11.66 6.96 12 9 C13.32 9.33 14.64 9.66 16 10 C14 12 14 12 11.375 12.125 C10.59125 12.08375 9.8075 12.0425 9 12 C9 9.69 9 7.38 9 5 C7.35 5 5.7 5 4 5 C4.33 4.01 4.66 3.02 5 2 C3.35 1.67 1.7 1.34 0 1 C0 0.67 0 0.34 0 0 Z " fill="#1EC4F3" transform="translate(79,51)"/>
<path d="M0 0 C3.63 0.33 7.26 0.66 11 1 C10.67 2.65 10.34 4.3 10 6 C6.7 6 3.4 6 0 6 C0 4.02 0 2.04 0 0 Z M11 0 C13 1 13 1 13 1 Z " fill="#065BF8" transform="translate(29,64)"/>
<path d="M0 0 C3.96 0 7.92 0 12 0 C12.33 10.89 12.66 21.78 13 33 C12.01 33 11.02 33 10 33 C10.33 22.44 10.66 11.88 11 1 C7.37 1 3.74 1 0 1 C0 0.67 0 0.34 0 0 Z " fill="#D7EAF8" transform="translate(28,71)"/>
<path d="M0 0 C2 2 2 2 2.13525391 4.33837891 C2.08288574 5.29147949 2.03051758 6.24458008 1.9765625 7.2265625 C1.925 8.2578125 1.8734375 9.2890625 1.8203125 10.3515625 C1.75585938 11.43179688 1.69140625 12.51203125 1.625 13.625 C1.56828125 14.71296875 1.5115625 15.8009375 1.453125 16.921875 C1.3113698 19.61522387 1.15993358 22.3076793 1 25 C0.34 25.33 -0.32 25.66 -1 26 C-1.02886751 21.85418113 -1.04675327 17.70838784 -1.0625 13.5625 C-1.07087891 12.37849609 -1.07925781 11.19449219 -1.08789062 9.97460938 C-1.09111328 8.84990234 -1.09433594 7.72519531 -1.09765625 6.56640625 C-1.10289307 5.52427979 -1.10812988 4.48215332 -1.11352539 3.40844727 C-1 1 -1 1 0 0 Z " fill="#015DFB" transform="translate(43,71)"/>
<path d="M0 0 C2.31 0 4.62 0 7 0 C7 0.66 7 1.32 7 2 C8.65 2 10.3 2 12 2 C11.01 3.485 11.01 3.485 10 5 C7.6171875 5.29296875 7.6171875 5.29296875 4.875 5.1875 C3.96492188 5.16042969 3.05484375 5.13335937 2.1171875 5.10546875 C1.41851563 5.07066406 0.71984375 5.03585938 0 5 C0 3.35 0 1.7 0 0 Z " fill="#045BF9" transform="translate(29,51)"/>
<path d="M0 0 C0.66 0 1.32 0 2 0 C2 6.93 2 13.86 2 21 C1.34 21 0.68 21 0 21 C-0.66 19.35 -1.32 17.7 -2 16 C-1.34 16 -0.68 16 0 16 C0 10.72 0 5.44 0 0 Z " fill="#C2DEF4" transform="translate(26,50)"/>
<path d="M0 0 C6.93 0 13.86 0 21 0 C21 0.66 21 1.32 21 2 C18.70839681 2.02692484 16.41670454 2.04636124 14.125 2.0625 C12.84882812 2.07410156 11.57265625 2.08570313 10.2578125 2.09765625 C7 2 7 2 5 1 C5.04125 2.11375 5.0825 3.2275 5.125 4.375 C5 8 5 8 3 10 C3 7.36 3 4.72 3 2 C2.01 2 1.02 2 0 2 C0 1.34 0 0.68 0 0 Z " fill="#14A1F9" transform="translate(43,30)"/>
<path d="M0 0 C0.99 0 1.98 0 3 0 C3 2.31 3 4.62 3 7 C3.33 7 3.66 7 4 7 C4 8.65 4 10.3 4 12 C2.68 11.67 1.36 11.34 0 11 C-0.66 8.69 -1.32 6.38 -2 4 C-1.34 4 -0.68 4 0 4 C0 2.68 0 1.36 0 0 Z " fill="#045AF8" transform="translate(44,99)"/>
<path d="M0 0 C1.485 0.99 1.485 0.99 3 2 C4.32 2 5.64 2 7 2 C7 2.99 7 3.98 7 5 C7.598125 5.268125 8.19625 5.53625 8.8125 5.8125 C10.99847854 6.99917406 12.41332594 8.09599113 14 10 C14 10.66 14 11.32 14 12 C12.35 11.67 10.7 11.34 9 11 C9 10.01 9 9.02 9 8 C8.2575 7.7525 7.515 7.505 6.75 7.25 C3.76976913 5.89534961 2.10080748 4.4898459 0 2 C0 1.34 0 0.68 0 0 Z " fill="#0649CF" transform="translate(98,80)"/>
<path d="M0 0 C2.1875 -0.375 2.1875 -0.375 5 0 C6.99022836 1.83961648 8.38989899 3.79186148 10 6 C6.7 5.67 3.4 5.34 0 5 C0 3.35 0 1.7 0 0 Z " fill="#21D2F3" transform="translate(100,64)"/>
<path d="M0 0 C2 3 2 3 1.625 5.1875 C1.41875 5.785625 1.2125 6.38375 1 7 C0.34 7 -0.32 7 -1 7 C-1.33 7.66 -1.66 8.32 -2 9 C-2.66 9 -3.32 9 -4 9 C-4.33 9.99 -4.66 10.98 -5 12 C-4.64989059 3.64989059 -4.64989059 3.64989059 -1.9375 0.9375 C-1.298125 0.628125 -0.65875 0.31875 0 0 Z " fill="#C0EF2A" transform="translate(94,31)"/>
<path d="M0 0 C0.66 0 1.32 0 2 0 C2 0.66 2 1.32 2 2 C3.65 1.34 5.3 0.68 7 0 C7 0.66 7 1.32 7 2 C8.65 2.33 10.3 2.66 12 3 C12 3.66 12 4.32 12 5 C8.37 5 4.74 5 1 5 C0.67 3.35 0.34 1.7 0 0 Z " fill="#EEF6F8" transform="translate(67,96)"/>
<path d="M0 0 C3.96 0.33 7.92 0.66 12 1 C12 4.3 12 7.6 12 11 C11.34 10.67 10.68 10.34 10 10 C10 7.69 10 5.38 10 3 C6.7 2.67 3.4 2.34 0 2 C0 1.34 0 0.68 0 0 Z " fill="#1861EA" transform="translate(68,101)"/>
<path d="M0 0 C5.43806647 -0.36253776 5.43806647 -0.36253776 7.9375 1.25 C9 3 9 3 8.6875 5.1875 C8.3471875 6.0846875 8.3471875 6.0846875 8 7 C5.50638429 5.79618552 3.31856917 4.54571278 1 3 C0.67 2.01 0.34 1.02 0 0 Z " fill="#065AF8" transform="translate(47,112)"/>
<path d="M0 0 C0.66 0.33 1.32 0.66 2 1 C2.14285714 9.57142857 2.14285714 9.57142857 1 13 C-0.32 13.33 -1.64 13.66 -3 14 C-2.5359375 13.0409375 -2.5359375 13.0409375 -2.0625 12.0625 C-0.68064597 8.07950896 -0.3463457 4.18349151 0 0 Z " fill="#F3FCD7" transform="translate(114,37)"/>
<path d="M0 0 C3 1 3 1 5 4 C5.265625 6.62890625 5.265625 6.62890625 5.25 9.5625 C5.25515625 10.53316406 5.2603125 11.50382812 5.265625 12.50390625 C5 15 5 15 3 17 C3.02320312 16.30132812 3.04640625 15.60265625 3.0703125 14.8828125 C3.08835937 13.97273438 3.10640625 13.06265625 3.125 12.125 C3.15980469 10.76761719 3.15980469 10.76761719 3.1953125 9.3828125 C3.24324836 6.81193006 3.24324836 6.81193006 1 5 C0.375 2.375 0.375 2.375 0 0 Z " fill="#C6ED4D" transform="translate(109,31)"/>
<path d="M0 0 C2.64 0.33 5.28 0.66 8 1 C8 2.65 8 4.3 8 6 C6.68 6 5.36 6 4 6 C3.67 5.01 3.34 4.02 3 3 C2.34 3.66 1.68 4.32 1 5 C0.67 3.35 0.34 1.7 0 0 Z " fill="#14A0F7" transform="translate(64,50)"/>
<path d="M0 0 C4.95 0 9.9 0 15 0 C15 1.65 15 3.3 15 5 C13 4 11 3 9 2 C7.29297265 1.93003986 5.58331997 1.91559846 3.875 1.9375 C2.96492188 1.94652344 2.05484375 1.95554687 1.1171875 1.96484375 C0.06917969 1.98224609 0.06917969 1.98224609 -1 2 C-0.67 1.34 -0.34 0.68 0 0 Z " fill="#F1FBD7" transform="translate(97,27)"/>
<path d="M0 0 C2.79872437 2.52788007 4.45773019 4.20411134 5 8 C3.35 7.67 1.7 7.34 0 7 C0 4.69 0 2.38 0 0 Z " fill="#0A59F5" transform="translate(64,96)"/>
<path d="M0 0 C1.98 0 3.96 0 6 0 C6 0.99 6 1.98 6 3 C4.02 3.33 2.04 3.66 0 4 C0 2.68 0 1.36 0 0 Z " fill="#1180F5" transform="translate(64,67)"/>
<path d="M0 0 C2.31 0 4.62 0 7 0 C7 0.66 7 1.32 7 2 C6.195625 2.12375 5.39125 2.2475 4.5625 2.375 C3.2940625 2.684375 3.2940625 2.684375 2 3 C1.67 3.66 1.34 4.32 1 5 C0.34 5 -0.32 5 -1 5 C-0.67 3.35 -0.34 1.7 0 0 Z " fill="#F5FCD6" transform="translate(100,53)"/>
<path d="M0 0 C2.02054804 1.64169528 4.02043058 3.30911778 6 5 C6 5.33 6 5.66 6 6 C4.02 6 2.04 6 0 6 C0 4.02 0 2.04 0 0 Z " fill="#43D5ED" transform="translate(104,64)"/>
<path d="M0 0 C1 2 1 2 0.875 4.375 C1.02476303 7.52002354 1.94429746 8.68733464 4 11 C2.35 10.67 0.7 10.34 -1 10 C-1.02689216 8.52093108 -1.04634621 7.04172517 -1.0625 5.5625 C-1.07410156 4.73878906 -1.08570312 3.91507813 -1.09765625 3.06640625 C-1 1 -1 1 0 0 Z " fill="#EDFBBE" transform="translate(89,36)"/>
<path d="M0 0 C0.99 0.33 1.98 0.66 3 1 C3 2.98 3 4.96 3 7 C1.35 5.35 -0.3 3.7 -2 2 C-1.34 2 -0.68 2 0 2 C0 1.34 0 0.68 0 0 Z " fill="#C0F130" transform="translate(92,41)"/>
<path d="M0 0 C1.16945792 0.80847729 2.33550461 1.62189112 3.5 2.4375 C4.47453125 3.11619141 4.47453125 3.11619141 5.46875 3.80859375 C5.9740625 4.20175781 6.479375 4.59492187 7 5 C7 5.33 7 5.66 7 6 C5.35 6 3.7 6 2 6 C1.34 4.02 0.68 2.04 0 0 Z " fill="#DCEDF2" transform="translate(45,114)"/>
<path d="M0 0 C1.99097846 2.98646769 2.94124926 5.59687262 4 9 C2.68 9 1.36 9 0 9 C0 6.03 0 3.06 0 0 Z " fill="#CCDFF6" transform="translate(41,105)"/>
</svg>
